<svg xmlns="http://www.w3.org/2000/svg" width="116" height="116" viewBox="0 0 116 116">
  <g id="favicon" transform="translate(1498.793 -675)">
    <rect id="Rectangle_10" data-name="Rectangle 10" width="116" height="116" transform="translate(-1498.793 675)" fill="none"/>
    <text id="SLua" transform="translate(-1497.793 760)" fill="#1a1a1a" font-size="50" font-family="Ubuntu-Bold, Ubuntu" font-weight="700"><tspan x="0" y="0">SLua</tspan></text>
    <path id="Subtraction_9" data-name="Subtraction 9" d="M14,28A14,14,0,0,1,8.55,1.1,14.043,14.043,0,0,1,18.63.785a16.2,16.2,0,0,1,2.665,1.29,7.427,7.427,0,0,1,1.192.857c.323.3.472.555.442.755-.049.326-.572.507-1.552.538a7.21,7.21,0,0,0-2.778.608A4.7,4.7,0,0,0,16.141,6.48a4.665,4.665,0,1,0,8.084,1.271,1.1,1.1,0,0,1,.177-.868.874.874,0,0,1,.671-.218,4.175,4.175,0,0,1,.936.134,1.845,1.845,0,0,1,1.1.963,6.117,6.117,0,0,1,.6,1.828A25.153,25.153,0,0,1,28,14,13.988,13.988,0,0,1,14,28Z" transform="translate(-1416.793 697)" fill="#1a1a1a"/>
  </g>
</svg>
