<svg xmlns="http://www.w3.org/2000/svg" width="116" height="116" viewBox="0 0 116 116">
  <g id="favicon" transform="translate(1498.793 -675)">
    <rect id="Rectangle_10" data-name="Rectangle 10" width="116" height="116" transform="translate(-1498.793 675)" fill="none"/>
    <path id="Path_34" data-name="Path 34" d="M13.45-5.95a11.25,11.25,0,0,0,2.725-.275,5.024,5.024,0,0,0,1.725-.75A2.51,2.51,0,0,0,18.8-8.1a4.011,4.011,0,0,0,.25-1.45,3.349,3.349,0,0,0-1.6-2.825,22.862,22.862,0,0,0-5.5-2.425q-1.7-.6-3.4-1.375a12.532,12.532,0,0,1-3.05-1.95,9.328,9.328,0,0,1-2.2-2.85,8.927,8.927,0,0,1-.85-4.075,10.091,10.091,0,0,1,.9-4.325A9.233,9.233,0,0,1,5.9-32.65a11.669,11.669,0,0,1,4-2.075,17.955,17.955,0,0,1,5.3-.725,21.582,21.582,0,0,1,6.05.75,21.618,21.618,0,0,1,4.2,1.65L23.2-26.9a21.31,21.31,0,0,0-3.225-1.325A13.965,13.965,0,0,0,15.7-28.8a7.843,7.843,0,0,0-4.025.775A2.615,2.615,0,0,0,10.45-25.65a2.743,2.743,0,0,0,.45,1.6,4.374,4.374,0,0,0,1.275,1.175,11.217,11.217,0,0,0,1.9.95q1.075.425,2.375.875,2.7,1,4.7,1.975A12.552,12.552,0,0,1,24.475-16.8a8.24,8.24,0,0,1,1.975,3.05A12.254,12.254,0,0,1,27.1-9.5a9.026,9.026,0,0,1-3.4,7.525Q20.3.7,13.45.7A28.4,28.4,0,0,1,9.3.425,26.784,26.784,0,0,1,6.025-.25a18.785,18.785,0,0,1-2.45-.85A18.6,18.6,0,0,1,1.85-1.95l2.2-6.2A19.615,19.615,0,0,0,7.875-6.625,19.839,19.839,0,0,0,13.45-5.95Zm42.8-.75V0H33.1V-34.65h7.8V-6.7ZM83.2-.9A41.525,41.525,0,0,1,78.3.125,40.265,40.265,0,0,1,72,.6a14.959,14.959,0,0,1-5.575-.9A8.463,8.463,0,0,1,62.9-2.825,9.855,9.855,0,0,1,61.05-6.7a20.842,20.842,0,0,1-.55-4.95V-26.3h7.45v13.75a10.657,10.657,0,0,0,.95,5.2q.95,1.6,3.55,1.6.8,0,1.7-.075T75.75-6V-26.3H83.2Zm17.05-4.3q1.1,0,2.1-.05a14.611,14.611,0,0,0,1.6-.15v-5.65q-.45-.1-1.35-.2a15.034,15.034,0,0,0-1.65-.1,14.766,14.766,0,0,0-1.975.125,5.16,5.16,0,0,0-1.625.475,2.788,2.788,0,0,0-1.1.95,2.647,2.647,0,0,0-.4,1.5,2.555,2.555,0,0,0,1.175,2.425A6.493,6.493,0,0,0,100.25-5.2ZM99.65-27a17.253,17.253,0,0,1,5.5.75,8.541,8.541,0,0,1,3.525,2.15,7.9,7.9,0,0,1,1.875,3.4,16.77,16.77,0,0,1,.55,4.45V-.75q-1.6.35-4.45.825a42.761,42.761,0,0,1-6.9.475A21.876,21.876,0,0,1,95.125.1,10.038,10.038,0,0,1,91.55-1.375a6.75,6.75,0,0,1-2.3-2.675,9.233,9.233,0,0,1-.8-4.05,7.675,7.675,0,0,1,.925-3.9,7.119,7.119,0,0,1,2.475-2.55,11.184,11.184,0,0,1,3.55-1.375,19.915,19.915,0,0,1,4.15-.425,23.561,23.561,0,0,1,2.575.125,11.462,11.462,0,0,1,1.825.325v-.7a4.123,4.123,0,0,0-1.15-3.05q-1.15-1.15-4-1.15a25.47,25.47,0,0,0-3.75.275,16.087,16.087,0,0,0-3.2.775l-.95-6q.65-.2,1.625-.425t2.125-.4q1.15-.175,2.425-.3T99.65-27Z" transform="translate(-1497.793 760)" fill="#1a1a1a"/>
    <path id="Subtraction_9" data-name="Subtraction 9" d="M14,28A14,14,0,0,1,8.55,1.1,14.043,14.043,0,0,1,18.63.785a16.2,16.2,0,0,1,2.665,1.29,7.427,7.427,0,0,1,1.192.857c.323.3.472.555.442.755-.049.326-.572.507-1.552.538a7.21,7.21,0,0,0-2.778.608A4.7,4.7,0,0,0,16.141,6.48a4.665,4.665,0,1,0,8.084,1.271,1.1,1.1,0,0,1,.177-.868.874.874,0,0,1,.671-.218,4.175,4.175,0,0,1,.936.134,1.845,1.845,0,0,1,1.1.963,6.117,6.117,0,0,1,.6,1.828A25.153,25.153,0,0,1,28,14,13.988,13.988,0,0,1,14,28Z" transform="translate(-1416.793 697)" fill="#1a1a1a"/>
  </g>
</svg>
