<svg xmlns="http://www.w3.org/2000/svg" width="400" height="400" viewBox="0 0 400 400">
  <g id="Group_6" data-name="Group 6" transform="translate(1499 -675)">
    <rect id="Rectangle_10" data-name="Rectangle 10" width="400" height="400" transform="translate(-1499 675)" fill="#03bfff"/>
    <text id="SLua" transform="translate(-1470 1028)" fill="#fff" font-size="150" font-family="Ubuntu-Bold, Ubuntu" font-weight="700"><tspan x="0" y="0">SLua</tspan></text>
    <path id="Subtraction_9" data-name="Subtraction 9" d="M48,96A48.013,48.013,0,0,1,29.316,3.772,48.148,48.148,0,0,1,63.874,2.693,55.539,55.539,0,0,1,73.01,7.115,25.464,25.464,0,0,1,77.1,10.052c1.109,1.031,1.618,1.9,1.515,2.588-.169,1.117-1.959,1.737-5.322,1.844a24.72,24.72,0,0,0-9.524,2.083,16.1,16.1,0,0,0-8.425,5.649,16,16,0,1,0,27.717,4.359c-.11-1.509.072-2.4.608-2.975a3,3,0,0,1,2.3-.749,14.315,14.315,0,0,1,3.208.459,6.327,6.327,0,0,1,3.781,3.3A20.972,20.972,0,0,1,95,32.882,86.24,86.24,0,0,1,96,48,47.96,47.96,0,0,1,48,96Z" transform="translate(-1215 695)" fill="#fff"/>
  </g>
</svg>
